<mxfile host="app.diagrams.net" modified="2022-11-17T05:58:50.541Z" agent="5.0 (Windows NT 10.0; Win64; x64) AppleWebKit/537.36 (KHTML, like Gecko) Chrome/107.0.0.0 Safari/537.36" etag="fMBdn064j9AmRgQ9T82g" version="20.5.3" type="github">
  <diagram id="95fzK47jHUhYC2FOtqyZ" name="第 1 页">
    <mxGraphModel dx="1422" dy="794" grid="1" gridSize="10" guides="1" tooltips="1" connect="1" arrows="1" fold="1" page="1" pageScale="1" pageWidth="827" pageHeight="1169" math="0" shadow="0">
      <root>
        <mxCell id="0" />
        <mxCell id="1" parent="0" />
        <mxCell id="WTIMnBtnH8x8FYjj9AJM-3" value="" style="edgeStyle=orthogonalEdgeStyle;rounded=0;orthogonalLoop=1;jettySize=auto;html=1;" edge="1" parent="1" source="WTIMnBtnH8x8FYjj9AJM-1" target="WTIMnBtnH8x8FYjj9AJM-2">
          <mxGeometry relative="1" as="geometry" />
        </mxCell>
        <mxCell id="WTIMnBtnH8x8FYjj9AJM-1" value="Start" style="rounded=1;whiteSpace=wrap;html=1;" vertex="1" parent="1">
          <mxGeometry x="294" y="120" width="120" height="60" as="geometry" />
        </mxCell>
        <mxCell id="WTIMnBtnH8x8FYjj9AJM-10" value="是" style="edgeStyle=orthogonalEdgeStyle;rounded=0;orthogonalLoop=1;jettySize=auto;html=1;exitX=0.5;exitY=1;exitDx=0;exitDy=0;entryX=0.5;entryY=0;entryDx=0;entryDy=0;" edge="1" parent="1" source="WTIMnBtnH8x8FYjj9AJM-2" target="WTIMnBtnH8x8FYjj9AJM-5">
          <mxGeometry relative="1" as="geometry" />
        </mxCell>
        <mxCell id="WTIMnBtnH8x8FYjj9AJM-23" value="否" style="edgeStyle=orthogonalEdgeStyle;rounded=0;orthogonalLoop=1;jettySize=auto;html=1;entryX=0;entryY=0.5;entryDx=0;entryDy=0;" edge="1" parent="1" source="WTIMnBtnH8x8FYjj9AJM-2" target="WTIMnBtnH8x8FYjj9AJM-19">
          <mxGeometry relative="1" as="geometry" />
        </mxCell>
        <mxCell id="WTIMnBtnH8x8FYjj9AJM-2" value="base config &lt;br&gt;是否存在？" style="shape=parallelogram;perimeter=parallelogramPerimeter;whiteSpace=wrap;html=1;fixedSize=1;" vertex="1" parent="1">
          <mxGeometry x="294" y="220" width="120" height="60" as="geometry" />
        </mxCell>
        <mxCell id="WTIMnBtnH8x8FYjj9AJM-12" value="否" style="edgeStyle=orthogonalEdgeStyle;rounded=0;orthogonalLoop=1;jettySize=auto;html=1;exitX=0.5;exitY=1;exitDx=0;exitDy=0;entryX=0.5;entryY=0;entryDx=0;entryDy=0;" edge="1" parent="1" source="WTIMnBtnH8x8FYjj9AJM-5" target="WTIMnBtnH8x8FYjj9AJM-6">
          <mxGeometry relative="1" as="geometry" />
        </mxCell>
        <mxCell id="WTIMnBtnH8x8FYjj9AJM-5" value="DE空间获取是否kitting？" style="shape=parallelogram;perimeter=parallelogramPerimeter;whiteSpace=wrap;html=1;fixedSize=1;" vertex="1" parent="1">
          <mxGeometry x="294" y="350" width="120" height="60" as="geometry" />
        </mxCell>
        <mxCell id="WTIMnBtnH8x8FYjj9AJM-13" style="edgeStyle=orthogonalEdgeStyle;rounded=0;orthogonalLoop=1;jettySize=auto;html=1;exitX=0.5;exitY=1;exitDx=0;exitDy=0;entryX=0.5;entryY=0;entryDx=0;entryDy=0;" edge="1" parent="1" source="WTIMnBtnH8x8FYjj9AJM-6" target="WTIMnBtnH8x8FYjj9AJM-8">
          <mxGeometry relative="1" as="geometry" />
        </mxCell>
        <mxCell id="WTIMnBtnH8x8FYjj9AJM-6" value="将CE空间文件移动至DE空间" style="rounded=0;whiteSpace=wrap;html=1;" vertex="1" parent="1">
          <mxGeometry x="294" y="470" width="120" height="60" as="geometry" />
        </mxCell>
        <mxCell id="WTIMnBtnH8x8FYjj9AJM-14" style="edgeStyle=orthogonalEdgeStyle;rounded=0;orthogonalLoop=1;jettySize=auto;html=1;exitX=0.5;exitY=1;exitDx=0;exitDy=0;entryX=0.5;entryY=0;entryDx=0;entryDy=0;" edge="1" parent="1" source="WTIMnBtnH8x8FYjj9AJM-8" target="WTIMnBtnH8x8FYjj9AJM-9">
          <mxGeometry relative="1" as="geometry" />
        </mxCell>
        <mxCell id="WTIMnBtnH8x8FYjj9AJM-8" value="复制DE空间中的share文件到CE空间" style="rounded=0;whiteSpace=wrap;html=1;" vertex="1" parent="1">
          <mxGeometry x="294" y="570" width="120" height="60" as="geometry" />
        </mxCell>
        <mxCell id="WTIMnBtnH8x8FYjj9AJM-17" style="edgeStyle=orthogonalEdgeStyle;rounded=0;orthogonalLoop=1;jettySize=auto;html=1;entryX=0.5;entryY=0;entryDx=0;entryDy=0;" edge="1" parent="1" source="WTIMnBtnH8x8FYjj9AJM-9" target="WTIMnBtnH8x8FYjj9AJM-16">
          <mxGeometry relative="1" as="geometry" />
        </mxCell>
        <mxCell id="WTIMnBtnH8x8FYjj9AJM-9" value="&lt;br&gt;&lt;span style=&quot;color: rgb(0, 0, 0); font-family: Helvetica; font-size: 12px; font-style: normal; font-variant-ligatures: normal; font-variant-caps: normal; font-weight: 400; letter-spacing: normal; orphans: 2; text-align: center; text-indent: 0px; text-transform: none; widows: 2; word-spacing: 0px; -webkit-text-stroke-width: 0px; background-color: rgb(248, 249, 250); text-decoration-thickness: initial; text-decoration-style: initial; text-decoration-color: initial; float: none; display: inline !important;&quot;&gt;复制DE空间中的database文件到CE空间&lt;/span&gt;&lt;br&gt;" style="rounded=0;whiteSpace=wrap;html=1;" vertex="1" parent="1">
          <mxGeometry x="294" y="670" width="120" height="60" as="geometry" />
        </mxCell>
        <mxCell id="WTIMnBtnH8x8FYjj9AJM-15" value="兼容Android 7" style="shape=curlyBracket;whiteSpace=wrap;html=1;rounded=1;labelPosition=left;verticalLabelPosition=middle;align=right;verticalAlign=middle;" vertex="1" parent="1">
          <mxGeometry x="260" y="570" width="20" height="160" as="geometry" />
        </mxCell>
        <mxCell id="WTIMnBtnH8x8FYjj9AJM-16" value="End" style="rounded=1;whiteSpace=wrap;html=1;" vertex="1" parent="1">
          <mxGeometry x="294" y="770" width="120" height="60" as="geometry" />
        </mxCell>
        <mxCell id="WTIMnBtnH8x8FYjj9AJM-24" style="edgeStyle=orthogonalEdgeStyle;rounded=0;orthogonalLoop=1;jettySize=auto;html=1;entryX=1;entryY=0.5;entryDx=0;entryDy=0;" edge="1" parent="1" source="WTIMnBtnH8x8FYjj9AJM-18" target="WTIMnBtnH8x8FYjj9AJM-5">
          <mxGeometry relative="1" as="geometry" />
        </mxCell>
        <mxCell id="WTIMnBtnH8x8FYjj9AJM-18" value="复制所有file文件到DE空间" style="rounded=0;whiteSpace=wrap;html=1;" vertex="1" parent="1">
          <mxGeometry x="620" y="350" width="120" height="60" as="geometry" />
        </mxCell>
        <mxCell id="WTIMnBtnH8x8FYjj9AJM-21" style="edgeStyle=orthogonalEdgeStyle;rounded=0;orthogonalLoop=1;jettySize=auto;html=1;entryX=0.5;entryY=0;entryDx=0;entryDy=0;" edge="1" parent="1" source="WTIMnBtnH8x8FYjj9AJM-19" target="WTIMnBtnH8x8FYjj9AJM-18">
          <mxGeometry relative="1" as="geometry" />
        </mxCell>
        <mxCell id="WTIMnBtnH8x8FYjj9AJM-22" value="否" style="edgeLabel;html=1;align=center;verticalAlign=middle;resizable=0;points=[];" vertex="1" connectable="0" parent="WTIMnBtnH8x8FYjj9AJM-21">
          <mxGeometry x="0.3" relative="1" as="geometry">
            <mxPoint as="offset" />
          </mxGeometry>
        </mxCell>
        <mxCell id="WTIMnBtnH8x8FYjj9AJM-25" value="是" style="edgeStyle=orthogonalEdgeStyle;rounded=0;orthogonalLoop=1;jettySize=auto;html=1;entryX=1;entryY=0.5;entryDx=0;entryDy=0;" edge="1" parent="1" source="WTIMnBtnH8x8FYjj9AJM-19" target="WTIMnBtnH8x8FYjj9AJM-5">
          <mxGeometry x="-0.6992" relative="1" as="geometry">
            <Array as="points">
              <mxPoint x="550" y="380" />
            </Array>
            <mxPoint as="offset" />
          </mxGeometry>
        </mxCell>
        <mxCell id="WTIMnBtnH8x8FYjj9AJM-19" value="判断默认空间&lt;br&gt;是否为DE空间？" style="shape=parallelogram;perimeter=parallelogramPerimeter;whiteSpace=wrap;html=1;fixedSize=1;" vertex="1" parent="1">
          <mxGeometry x="490" y="220" width="120" height="60" as="geometry" />
        </mxCell>
      </root>
    </mxGraphModel>
  </diagram>
</mxfile>
